<svg width="152" height="27" viewBox="0 0 152 27" fill="none" xmlns="http://www.w3.org/2000/svg">
<path d="M10.3047 14.7676H3.73047L3.69531 11.1465H9.21484C10.1875 11.1465 10.9844 11.0234 11.6055 10.7773C12.2266 10.5195 12.6895 10.1504 12.9941 9.66992C13.3105 9.17773 13.4688 8.58008 13.4688 7.87695C13.4688 7.08008 13.3164 6.43555 13.0117 5.94336C12.7188 5.45117 12.2559 5.09375 11.623 4.87109C11.002 4.64844 10.1992 4.53711 9.21484 4.53711H5.55859V26H0.285156V0.40625H9.21484C10.7031 0.40625 12.0332 0.546875 13.2051 0.828125C14.3887 1.10938 15.3906 1.53711 16.2109 2.11133C17.0312 2.68555 17.6582 3.41211 18.0918 4.29102C18.5254 5.1582 18.7422 6.18945 18.7422 7.38477C18.7422 8.43945 18.502 9.41211 18.0215 10.3027C17.5527 11.1934 16.8086 11.9199 15.7891 12.4824C14.7812 13.0449 13.4629 13.3555 11.834 13.4141L10.3047 14.7676ZM10.0762 26H2.28906L4.3457 21.8867H10.0762C11.002 21.8867 11.7578 21.7402 12.3438 21.4473C12.9297 21.1426 13.3633 20.7324 13.6445 20.2168C13.9258 19.7012 14.0664 19.1094 14.0664 18.4414C14.0664 17.6914 13.9375 17.041 13.6797 16.4902C13.4336 15.9395 13.0352 15.5176 12.4844 15.2246C11.9336 14.9199 11.207 14.7676 10.3047 14.7676H5.22461L5.25977 11.1465H11.5879L12.8008 12.5703C14.3594 12.5469 15.6133 12.8223 16.5625 13.3965C17.5234 13.959 18.2207 14.6914 18.6543 15.5938C19.0996 16.4961 19.3223 17.4629 19.3223 18.4941C19.3223 20.1348 18.9648 21.5176 18.25 22.6426C17.5352 23.7559 16.4863 24.5938 15.1035 25.1562C13.7324 25.7188 12.0566 26 10.0762 26ZM44.0512 21.8867V26H30.4281V21.8867H44.0512ZM32.1508 0.40625V26H26.8773V0.40625H32.1508ZM42.2758 10.8301V14.8379H30.4281V10.8301H42.2758ZM44.0336 0.40625V4.53711H30.4281V0.40625H44.0336ZM61.1336 4.7832L54.1727 26H48.5652L58.075 0.40625H61.6434L61.1336 4.7832ZM66.9168 26L59.9383 4.7832L59.3758 0.40625H62.9793L72.5418 26H66.9168ZM66.6004 16.4727V20.6035H53.0828V16.4727H66.6004ZM92.3313 0.40625H97.5871V17.3164C97.5871 19.2852 97.1652 20.9434 96.3215 22.291C95.4895 23.6387 94.3352 24.6523 92.8586 25.332C91.3938 26.0117 89.7063 26.3516 87.7961 26.3516C85.8859 26.3516 84.1867 26.0117 82.6984 25.332C81.2219 24.6523 80.0617 23.6387 79.218 22.291C78.3859 20.9434 77.9699 19.2852 77.9699 17.3164V0.40625H83.2434V17.3164C83.2434 18.4648 83.425 19.4023 83.7883 20.1289C84.1516 20.8555 84.673 21.3887 85.3527 21.7285C86.0441 22.0684 86.8586 22.2383 87.7961 22.2383C88.757 22.2383 89.5715 22.0684 90.2395 21.7285C90.9191 21.3887 91.4348 20.8555 91.7863 20.1289C92.1496 19.4023 92.3313 18.4648 92.3313 17.3164V0.40625ZM116.972 0.40625V26H111.716V0.40625H116.972ZM124.847 0.40625V4.53711H103.964V0.40625H124.847ZM135.25 0.40625L140.594 12.0781L145.938 0.40625H151.686L143.266 16.6836V26H137.922V16.6836L129.484 0.40625H135.25Z" fill="#F13C6E"/>
</svg>
